<svg width="70" height="70" viewBox="0 0 421 402" fill="none" xmlns="http://www.w3.org/2000/svg">
<path d="M235.4 179.301C564.5 105.401 320.1 69.9005 218.4 176.801C320.1 69.9005 210.8 -151.6 210.8 161.4C210.8 -151.6 101.5 69.9005 203.2 176.801C101.5 69.9005 -142.9 105.401 186.2 179.301C-142.9 105.401 33.8996 277.801 198.5 191.301C33.9996 277.801 -7.80035 521.201 195.6 208.201C-7.80035 521.201 210.8 406.301 210.8 200.201C210.8 406.301 429.4 521.201 226 208.201C429.4 521.201 387.6 277.801 223.1 191.301C387.6 277.801 564.5 105.401 235.4 179.301Z" fill="black"/>
</svg>
