<svg width="70" height="70" viewBox="0 0 410 410" fill="none" xmlns="http://www.w3.org/2000/svg">
<path d="M396.4 173.002L209.3 202.402L361.6 91.4019C361.6 66.6019 341.5 46.602 316.8 46.602L208.3 195.502L236.9 13.502C219.4 -3.99805 191 -3.99805 173.5 13.502L202.7 199.702L91.2 46.602C66.4 46.602 46.4 66.7019 46.4 91.4019L198.1 201.902L14 173.002C-3.5 190.502 -3.5 218.902 14 236.402L196.4 207.802L46.4 317.002C46.4 341.802 66.5 361.802 91.2 361.802L202.9 208.502L173.5 395.902C191 413.402 219.4 413.402 236.9 395.902L208.1 212.702L316.8 361.902C341.6 361.902 361.6 341.802 361.6 317.102L211.1 207.302L396.5 236.402C413.9 218.902 413.9 190.502 396.4 173.002Z" fill="black"/>
</svg>
