<svg width="70" height="70" viewBox="0 0 376 376" fill="none" xmlns="http://www.w3.org/2000/svg">
<path d="M93.9997 93.9997H95.2998C146.8 93.4997 188.2 51.4997 188 -0.00025497C136.5 -0.200255 94.5997 41.1997 93.9997 92.6997C93.4997 41.1997 51.4997 -0.200255 -0.00025497 -0.00025497C-0.200255 51.4997 41.1997 93.3997 92.6997 93.9997H93.9997C42.4997 93.7997 0.599745 135.2 -0.00025497 186.7V188H1.29974C52.7997 187.4 94.1997 145.5 93.9997 93.9997C93.7997 145.5 135.2 187.4 186.7 188H188V186.7C187.4 135.2 145.5 93.7997 93.9997 93.9997Z" fill="black"/>
<path d="M376 -0.00025497C324.5 -0.200255 282.6 41.1997 282 92.6997V93.9997H283.3C334.8 93.3997 376.2 51.4997 376 -0.00025497Z" fill="black"/>
<path d="M280.7 93.9997H282C230.5 93.7997 188.6 135.2 188 186.7V188H189.3C240.8 187.5 282.2 145.5 282 93.9997C281.8 145.5 323.2 187.4 374.7 188H376V186.7C375.5 135.2 333.5 93.7997 282 93.9997V92.6997C281.5 41.1997 239.5 -0.200255 188 -0.00025497C187.8 51.4997 229.2 93.3997 280.7 93.9997Z" fill="black"/>
<path d="M188 188C136.5 187.8 94.5995 229.2 93.9995 280.7V282H95.2995C146.8 281.4 188.2 239.5 188 188Z" fill="black"/>
<path d="M93.9997 282V280.7C93.4997 229.2 51.4997 187.8 -0.00025497 188C-0.200255 239.5 41.1997 281.4 92.6997 282H93.9997C42.4997 281.8 0.599745 323.2 -0.00025497 374.7V376H1.29974C52.7997 375.4 94.1997 333.5 93.9997 282C93.7997 333.5 135.2 375.4 186.7 376H188V374.7C187.4 323.2 145.5 281.8 93.9997 282Z" fill="black"/>
<path d="M376 188C324.5 187.8 282.6 229.2 282 280.7V282H283.3C334.8 281.4 376.1 239.5 376 188Z" fill="black"/>
<path d="M282 282V280.7C281.5 229.2 239.5 187.8 188 188C187.8 239.5 229.2 281.4 280.7 282H282C230.5 281.8 188.6 323.2 188 374.7V376H189.3C240.8 375.4 282.2 333.5 282 282C281.8 333.5 323.2 375.4 374.7 376H376V374.7C375.4 323.2 333.5 281.8 282 282Z" fill="black"/>
</svg>
